HIERARCHY
ROOT Hips
{
	OFFSET 0.000000 0.000000 0.000000
	CHANNELS 6 Xposition Yposition Zposition Xrotation Yrotation Zrotation
	JOINT LeftUpLeg_virtual
	{
		OFFSET 0.000000 0.000000 0.000000
		CHANNELS 3 Xrotation Yrotation Zrotation
		JOINT LeftUpLeg
		{
			OFFSET 10.205400 -3.823500 0.155100
			CHANNELS 3 Xrotation Yrotation Zrotation
			JOINT LeftLeg
			{
				OFFSET 0.708757 -12.982077 0.567790
				CHANNELS 3 Xrotation Yrotation Zrotation
				JOINT LeftFoot
				{
					OFFSET -0.708756 -10.717838 -2.184338
					CHANNELS 3 Xrotation Yrotation Zrotation
					JOINT LeftToeBase
					{
						OFFSET 0.108149 -7.191104 7.560241
						CHANNELS 3 Xrotation Yrotation Zrotation
						JOINT LeftToe_End
						{
							OFFSET 0.070230 0.081724 4.490308
							CHANNELS 3 Xrotation Yrotation Zrotation
							End Site
							{
								OFFSET 0 0 0
							}
						}
					}
				}
			}
		}
	}
	JOINT RightUpLeg_virtual
	{
		OFFSET 0.000000 0.000000 0.000000
		CHANNELS 3 Xrotation Yrotation Zrotation
		JOINT RightUpLeg
		{
			OFFSET -10.205400 -3.823500 0.005500
			CHANNELS 3 Xrotation Yrotation Zrotation
			JOINT RightLeg
			{
				OFFSET -0.708756 -12.982134 0.610632
				CHANNELS 3 Xrotation Yrotation Zrotation
				JOINT RightFoot
				{
					OFFSET 0.708754 -10.717769 -1.945823
					CHANNELS 3 Xrotation Yrotation Zrotation
					JOINT RightToeBase
					{
						OFFSET -0.108140 -7.191069 7.372968
						CHANNELS 3 Xrotation Yrotation Zrotation
						JOINT RightToe_End
						{
							OFFSET -0.070227 0.081735 4.479403
							CHANNELS 3 Xrotation Yrotation Zrotation
							End Site
							{
								OFFSET 0 0 0
							}
						}
					}
				}
			}
		}
	}
	JOINT Spine_virtual
	{
		OFFSET 0.000000 0.000000 0.000000
		CHANNELS 3 Xrotation Yrotation Zrotation
		JOINT Spine
		{
			OFFSET 0.000000 6.876099 0.125700
			CHANNELS 3 Xrotation Yrotation Zrotation
			JOINT Spine1
			{
				OFFSET 0.000000 5.730043 0.104720
				CHANNELS 3 Xrotation Yrotation Zrotation
				JOINT Spine1_split
				{
					OFFSET 0.000000 5.730043 0.104720
					CHANNELS 3 Xrotation Yrotation Zrotation
					JOINT Spine2
					{
						OFFSET 0.000000 5.730043 0.104720
						CHANNELS 3 Xrotation Yrotation Zrotation
						JOINT Neck_virtual
						{
							OFFSET 0.000000 0.000000 0.000000
							CHANNELS 3 Xrotation Yrotation Zrotation
							JOINT Neck
							{
								OFFSET 0.000000 10.314075 0.188496
								CHANNELS 3 Xrotation Yrotation Zrotation
								JOINT Head
								{
									OFFSET 0.000000 7.643700 -2.377400
									CHANNELS 3 Xrotation Yrotation Zrotation
									JOINT HeadTop_End
									{
										OFFSET 0.000000 43.788605 -13.619600
										CHANNELS 3 Xrotation Yrotation Zrotation
										End Site
										{
											OFFSET 0 0 0
										}
									}
								}
							}
						}
						JOINT LeftShoulder_virtual
						{
							OFFSET 0.000000 0.000000 0.000000
							CHANNELS 3 Xrotation Yrotation Zrotation
							JOINT LeftShoulder
							{
								OFFSET 2.196100 4.412489 0.087492
								CHANNELS 3 Xrotation Yrotation Zrotation
								JOINT LeftShoulder_split
								{
									OFFSET 2.196100 4.412489 0.087492
									CHANNELS 3 Xrotation Yrotation Zrotation
									JOINT LeftArm
									{
										OFFSET 8.771219 -2.981674 -0.026999
										CHANNELS 3 Xrotation Yrotation Zrotation
										JOINT LeftForeArm
										{
											OFFSET 8.512804 0.000000 -0.000000
											CHANNELS 3 Xrotation Yrotation Zrotation
											JOINT LeftHand
											{
												OFFSET 18.484802 0.000000 -0.000000
												CHANNELS 3 Xrotation Yrotation Zrotation
												End Site
												{
													OFFSET 0 0 0
												}
											}
										}
									}
								}
							}
						}
						JOINT RightShoulder_virtual
						{
							OFFSET 0.000000 0.000000 0.000000
							CHANNELS 3 Xrotation Yrotation Zrotation
							JOINT RightShoulder
							{
								OFFSET -2.196100 4.412496 0.070690
								CHANNELS 3 Xrotation Yrotation Zrotation
								JOINT RightShoulder_split
								{
									OFFSET -2.196100 4.412496 0.070690
									CHANNELS 3 Xrotation Yrotation Zrotation
									JOINT RightArm
									{
										OFFSET -8.771282 -2.981682 -0.094208
										CHANNELS 3 Xrotation Yrotation Zrotation
										JOINT RightForeArm
										{
											OFFSET -8.494598 0.000000 0.000000
											CHANNELS 3 Xrotation Yrotation Zrotation
											JOINT RightHand
											{
												OFFSET -18.483803 0.000000 0.000001
												CHANNELS 3 Xrotation Yrotation Zrotation
												End Site
												{
													OFFSET 0 0 0
												}
											}
										}
									}
								}
							}
						}
					}
				}
			}
		}
	}
}
MOTION
Frames: 5
Frame Time: 0.03333333
1.050910 26.665956 -0.252895 0.000000 0.000000 0.000000 -4.812878 -51.988548 1.228848 -34.532501 4.146535 21.967871 61.144864 -7.596104 3.578430 -26.315831 -6.888198 -18.266079 -1.787975 -0.153906 -0.589354 0.000000 0.000000 0.000000 -6.035710 -47.759353 1.553587 -12.130471 -12.653824 -38.015580 63.359717 -2.243788 -7.431136 -46.873614 -19.128669 30.037382 2.708972 1.929857 1.122417 0.000000 0.000000 0.000000 -4.946878 -49.875291 1.839370 9.935866 5.972008 -1.851124 2.098079 1.195602 -1.024853 0.117232 -0.833142 0.613711 0.000000 0.000000 0.000000 2.612166 1.127665 -0.815951 -1.338727 13.122927 3.557952 8.583117 20.576006 -3.845732 0.000000 0.000000 0.000000 3.439431 0.996572 -1.012153 1.491445 2.505853 -11.584834 -2.325237 0.115900 0.428100 -51.892765 2.141423 -50.980580 -178.303809 -75.147299 -178.195974 0.000000 0.000000 0.000000 3.692163 1.186387 -0.865667 3.396019 11.518045 -6.090477 -2.470633 1.845878 0.631542 -50.452244 26.655341 88.542563 -174.493711 71.425262 172.024434 0.000000 0.000000 0.000000 
0.899418 26.790781 -0.104092 0.000000 0.000000 0.000000 -4.622616 -51.900456 1.356735 -34.579742 4.701606 22.099639 60.265648 -7.854184 3.583708 -26.272106 -7.298255 -18.496309 -1.929938 -0.133970 -0.263608 0.000000 0.000000 0.000000 -5.550625 -47.975379 1.822774 -12.288432 -13.179719 -38.241054 62.669117 -1.980809 -7.025165 -45.791897 -17.672163 28.130880 2.486552 2.096697 2.032869 0.000000 0.000000 0.000000 -3.975982 -49.367330 2.437827 9.820653 6.084730 -1.906691 2.235845 1.268157 -1.093440 0.364896 -0.525513 0.593540 0.000000 0.000000 0.000000 2.564107 1.210933 -0.942685 -1.317665 13.008490 3.354465 8.832355 20.540626 -3.774745 0.000000 0.000000 0.000000 3.629709 1.034726 -1.056716 1.428755 1.989259 -10.961578 -2.423079 0.132605 0.168043 -52.648604 2.822659 -50.737408 -178.750832 -75.919260 -178.435755 0.000000 0.000000 0.000000 3.886382 1.273335 -0.980387 3.499602 11.790847 -5.862305 -2.859784 2.623664 0.820597 -50.905858 27.166224 88.458613 -175.098456 71.725333 172.821258 0.000000 0.000000 0.000000 
0.637780 27.089798 0.038870 0.000000 0.000000 0.000000 -3.924426 -51.457634 1.847683 -34.640978 5.240714 22.272856 58.619866 -8.036413 3.694134 -25.828804 -8.182445 -18.575729 -2.172629 -0.123513 0.232080 0.000000 0.000000 0.000000 -4.736461 -48.030785 2.451194 -13.620817 -12.492904 -39.291640 62.604182 -0.742781 -6.546739 -41.063394 -14.885719 27.965240 -1.447021 1.970091 3.765514 0.000000 0.000000 0.000000 -2.678416 -48.217164 3.300175 9.654699 6.390883 -1.999972 2.299922 1.488165 -1.254884 0.466397 -0.309513 0.554461 0.000000 0.000000 0.000000 2.475911 1.406644 -1.138866 -1.017305 12.851234 2.878398 9.219759 20.025172 -3.442009 0.000000 0.000000 0.000000 3.627794 1.215064 -1.196542 1.368075 0.914223 -10.232435 -2.174999 -0.104464 -0.311670 -54.887427 3.595190 -49.364291 -179.252755 -75.745623 -178.702624 0.000000 0.000000 0.000000 3.986873 1.458559 -1.189197 3.623113 12.361980 -5.670031 -2.813609 2.563947 0.923872 -52.487255 26.977220 88.244036 -175.426169 72.446662 173.419241 0.000000 0.000000 0.000000 
0.300065 27.488514 0.151211 0.000000 0.000000 0.000000 -2.889609 -50.616698 2.506430 -34.759031 5.591956 22.536196 56.461749 -8.089598 3.884301 -25.015457 -9.391901 -18.495756 -2.446461 -0.116766 0.712730 0.000000 0.000000 0.000000 -3.682041 -47.635358 3.241879 -15.337577 -10.845885 -40.578147 62.718779 1.113156 -6.194033 -35.338572 -11.493192 28.289199 -6.616797 1.446460 5.726152 0.000000 0.000000 0.000000 -1.348092 -46.637864 4.150844 9.424239 6.770667 -2.075204 2.257506 1.744507 -1.418396 0.330291 -0.311562 0.633583 0.000000 0.000000 0.000000 2.402284 1.634322 -1.292114 -0.542417 12.726219 2.267282 9.636971 19.153906 -2.888818 0.000000 0.000000 0.000000 3.444227 1.453600 -1.318872 1.351506 -0.552094 -9.470794 -1.772732 -0.613012 -0.941706 -58.234323 4.333213 -46.923246 -179.555551 -74.690735 -178.784914 0.000000 0.000000 0.000000 3.936919 1.658205 -1.378757 3.742966 13.117662 -5.639177 -2.603211 1.721439 0.918992 -55.275205 26.043856 88.008272 -175.480879 73.707413 173.727829 0.000000 0.000000 0.000000 
-0.058598 27.907108 0.229469 0.000000 0.000000 0.000000 -1.793066 -49.398442 3.098237 -35.058545 5.702919 22.917839 54.153046 -8.028789 4.176541 -23.960966 -10.746650 -18.331026 -2.629711 -0.106402 0.975854 0.000000 0.000000 0.000000 -2.740004 -46.771257 3.827995 -16.959353 -8.995163 -41.437692 62.949803 2.527067 -5.825035 -30.911893 -8.685408 27.418509 -9.070390 0.856718 7.180768 0.000000 0.000000 0.000000 -0.112199 -44.895796 4.774761 9.155222 7.122970 -2.055749 2.129337 1.931270 -1.484569 0.200875 -0.331419 0.757045 0.000000 0.000000 0.000000 2.346342 1.791113 -1.295987 -0.069500 12.602767 1.733024 9.946770 18.162475 -2.189336 0.000000 0.000000 0.000000 3.141936 1.650870 -1.321354 1.404068 -2.208003 -8.803674 -1.575025 -1.039147 -1.478165 -62.309726 4.777884 -43.765957 -179.779171 -73.121902 -178.867969 0.000000 0.000000 0.000000 3.727573 1.784424 -1.429316 3.848993 13.987937 -5.797444 -2.434444 0.689833 0.708380 -59.232527 24.453580 87.899596 -175.086148 75.553094 173.484223 0.000000 0.000000 0.000000 
